<?xml version="1.0" encoding="UTF-8" standalone="no"?>
<!-- Created with Inkscape (http://www.inkscape.org/) -->

<svg
   xmlns:dc="http://purl.org/dc/elements/1.1/"
   xmlns:cc="http://creativecommons.org/ns#"
   xmlns:rdf="http://www.w3.org/1999/02/22-rdf-syntax-ns#"
   xmlns:svg="http://www.w3.org/2000/svg"
   xmlns="http://www.w3.org/2000/svg"
   xmlns:sodipodi="http://sodipodi.sourceforge.net/DTD/sodipodi-0.dtd"
   xmlns:inkscape="http://www.inkscape.org/namespaces/inkscape"
   width="6.2088885mm"
   height="5.4188895mm"
   viewBox="0 0 21.999999 19.20079"
   id="svg4334"
   version="1.1"
   inkscape:version="0.91 r13725"
   sodipodi:docname="sound.svg">
  <defs
     id="defs4336" />
  <sodipodi:namedview
     id="base"
     pagecolor="#ffffff"
     bordercolor="#666666"
     borderopacity="1.0"
     inkscape:pageopacity="0.0"
     inkscape:pageshadow="2"
     inkscape:zoom="0.35"
     inkscape:cx="-215.42857"
     inkscape:cy="-558.97103"
     inkscape:document-units="px"
     inkscape:current-layer="layer1"
     showgrid="false"
     fit-margin-top="0"
     fit-margin-left="0"
     fit-margin-right="0"
     fit-margin-bottom="0"
     inkscape:window-width="1865"
     inkscape:window-height="1056"
     inkscape:window-x="55"
     inkscape:window-y="24"
     inkscape:window-maximized="1" />
  <metadata
     id="metadata4339">
    <rdf:RDF>
      <cc:Work
         rdf:about="">
        <dc:format>image/svg+xml</dc:format>
        <dc:type
           rdf:resource="http://purl.org/dc/dcmitype/StillImage" />
        <dc:title></dc:title>
      </cc:Work>
    </rdf:RDF>
  </metadata>
  <g
     inkscape:label="Calque 1"
     inkscape:groupmode="layer"
     id="layer1"
     transform="translate(-91.857143,45.809615)">
    <g
       id="g4317"
       style="fill:#000000"
       transform="matrix(1.1456476,0,0,1.1456476,72.070109,159.30382)">
      <path
         id="ellipse4301"
         d="m 30.990234,-176.54102 0.0039,1.8418 a 3.998771,4.0571942 0 0 1 3.662109,4.04102 3.998771,4.0571942 0 0 1 -3.642578,4.03711 l 0.0039,1.85156 a 5.8163962,5.9013748 0 0 0 5.457031,-5.88867 5.8163962,5.9013748 0 0 0 -5.484375,-5.88282 z"
         style="fill:#000000;fill-opacity:1;stroke:none;stroke-width:0;stroke-miterlimit:4;stroke-dasharray:none;stroke-opacity:1"
         inkscape:connector-curvature="0" />
      <path
         id="rect4307"
         d="m 28.867188,-179.03711 -5.369141,4.20117 -0.226563,0.17774 -4.667968,0 c -0.738666,0 -1.332032,0.59532 -1.332032,1.33398 l 0,5.33399 c 0,0.73866 0.593366,1.33203 1.332032,1.33203 l 4.626953,0 0.259765,0.20312 5.357422,4.17774 0.0098,-8.37891 0.0098,-8.38086 z"
         style="fill:#000000;fill-opacity:1;stroke:none;stroke-width:0;stroke-miterlimit:4;stroke-dasharray:none;stroke-opacity:1"
         inkscape:connector-curvature="0" />
      <ellipse
         ry="1.0146052"
         rx="0.99999499"
         style="fill:#000000;fill-opacity:1;stroke:none;stroke-width:0;stroke-miterlimit:4;stroke-dasharray:none;stroke-opacity:1"
         id="ellipse4311"
         cx="31.460695"
         cy="-170.65771" />
    </g>
  </g>
</svg>
