<?xml version="1.0" encoding="UTF-8" standalone="no"?>
<!-- Created with Inkscape (http://www.inkscape.org/) -->

<svg
   xmlns:dc="http://purl.org/dc/elements/1.1/"
   xmlns:cc="http://creativecommons.org/ns#"
   xmlns:rdf="http://www.w3.org/1999/02/22-rdf-syntax-ns#"
   xmlns:svg="http://www.w3.org/2000/svg"
   xmlns="http://www.w3.org/2000/svg"
   xmlns:sodipodi="http://sodipodi.sourceforge.net/DTD/sodipodi-0.dtd"
   xmlns:inkscape="http://www.inkscape.org/namespaces/inkscape"
   width="6.9651814mm"
   height="6.208889mm"
   viewBox="0 0 24.679777 22.000001"
   id="svg4334"
   version="1.1"
   inkscape:version="0.91 r13725"
   sodipodi:docname="sync.svg">
  <defs
     id="defs4336" />
  <sodipodi:namedview
     id="base"
     pagecolor="#ffffff"
     bordercolor="#666666"
     borderopacity="1.0"
     inkscape:pageopacity="0.0"
     inkscape:pageshadow="2"
     inkscape:zoom="3.959798"
     inkscape:cx="12.23287"
     inkscape:cy="23.127024"
     inkscape:document-units="px"
     inkscape:current-layer="layer1"
     showgrid="false"
     fit-margin-top="0"
     fit-margin-left="0"
     fit-margin-right="0"
     fit-margin-bottom="0"
     inkscape:window-width="751"
     inkscape:window-height="373"
     inkscape:window-x="953"
     inkscape:window-y="134"
     inkscape:window-maximized="0" />
  <metadata
     id="metadata4339">
    <rdf:RDF>
      <cc:Work
         rdf:about="">
        <dc:format>image/svg+xml</dc:format>
        <dc:type
           rdf:resource="http://purl.org/dc/dcmitype/StillImage" />
        <dc:title></dc:title>
      </cc:Work>
    </rdf:RDF>
  </metadata>
  <g
     inkscape:label="Calque 1"
     inkscape:groupmode="layer"
     id="layer1"
     transform="translate(-76.991873,36.598673)">
    <path
       style="fill:#000000;fill-opacity:1;stroke:none;stroke-width:0;stroke-miterlimit:4;stroke-dasharray:none;stroke-opacity:1"
       d="m 87.83367,-36.598673 a 10.841599,10.999996 0 0 0 -10.841797,11 10.841599,10.999996 0 0 0 10.841797,11 10.841599,10.999996 0 0 0 5.78515,-1.71289 l -2.49219,-2.50586 a 7.4535971,7.5624952 0 0 1 -3.29296,0.78125 7.4535971,7.5624952 0 0 1 -7.453127,-7.5625 7.4535971,7.5624952 0 0 1 7.453127,-7.5625 7.4535971,7.5624952 0 0 1 7.44922,7.41993 l -2.9004,0 2.32227,2.7539 2.32227,2.75196 0.63476,-0.75391 0.002,0.002 a 10.841599,10.999996 0 0 0 0.002,-0.0059 l 1.68359,-1.99414 2.32227,-2.7539 -3.00391,0 a 10.841599,10.999996 0 0 0 -10.83398,-10.85743 z"
       id="path4244-6"
       inkscape:connector-curvature="0" />
  </g>
</svg>
